# xmcd CD database file
#
# Track frame offsets:
#	150
#	15319
#	28461
#	42729
#	69363
#	80774
#	95105
#	105153
#	118426
#	133164
#	148887
#	162147
#	175002
#	189700
#	204331
#
# Disc length: 2879 seconds
#
# Revision: 2
# Processed by: cddbd v1.5.2PL0 Copyright (c) Steve Scherf et al.
# Submitted via: CDex 1.70beta2
#
DISCID=db0b3d0f
DTITLE=Machito - Afro cuban jazz
DYEAR=1900
DGENRE=Jazz
TTITLE0=Donde estabas tu (Ernesto Duarte)
TTITLE1=Mango Mangue (Valdez - Sunshine)
TTITLE2=Blen, blen, blen (Chano Pozo)
TTITLE3=No noise parts (J. Bortee)
TTITLE4=Adios (Madriguera - Woods)
TTITLE5=Si si, no no (J. Blanco Suazo)
TTITLE6=Afro cuban jazz suite 6/8 (Chico O'Farrill)
TTITLE7=Afro cuban jazz suite cancion (C. O'Farrill)
TTITLE8=Afro cuban jazz suite fiesta time (C. O'Farrill)
TTITLE9=Afro cuban jazz suite rhumba finale (C. O'Farrill)
TTITLE10=Hay que recordar (Piloto - Vera)
TTITLE11=Mambo a la savoy (Fuller - Machito)
TTITLE12=Negro nanamboro (Mariano Merceron)
TTITLE13=Tremendo camban (J. Valentine)
TTITLE14=Zambia (René Hernandez)
EXTD=
EXTT0=
EXTT1=
EXTT2=
EXTT3=
EXTT4=
EXTT5=
EXTT6=
EXTT7=
EXTT8=
EXTT9=
EXTT10=
EXTT11=
EXTT12=
EXTT13=
EXTT14=
PLAYORDER=
